<svg xmlns="http://www.w3.org/2000/svg" viewBox="0 0 204.79 204.75"><defs><style>.cls-1{fill:#fff;}</style></defs><title>Asset 1</title><g id="Layer_2" data-name="Layer 2"><g id="Layer_1-2" data-name="Layer 1"><path class="cls-1" d="M100.14,0h14.15c.79.11,1.57.28,2.37.33,13.93.85,27.41,3.67,40,9.78C177.8,20.35,193.08,36,200.51,58.66c4.18,12.75,5,25.89,3.78,39.17-1.15,12.77-4.43,24.91-11.73,35.64-11.84,17.42-27.94,26.7-49.45,25.09-12-.9-21-9.05-23.07-20.68-.17-.93-.28-1.88-.41-2.82l-.5-.08c-.26.57-.55,1.13-.79,1.71a40.07,40.07,0,0,1-9.69,14.81c-10.27,9.6-28.73,9.11-39.28,2.12-8.91-5.9-14-14.39-16.47-24.56-2.67-11-2.45-22-.72-33.08,2-13,7.08-24.73,16.18-34.48,9.75-10.45,21.6-15.57,36-13.84,8.23,1,14.25,5.06,17.25,13a10.45,10.45,0,0,0,.53,1.05l.36,0,1.24-12h27.1c0,.49,0,.85,0,1.22-1.33,14.45-2.79,28.89-3.94,43.35-.7,8.84-1,17.71-1.3,26.57a23.72,23.72,0,0,0,2,10.89c1.8,3.89,4.87,5.43,9.09,4.76a14.38,14.38,0,0,0,7.83-4A29.93,29.93,0,0,0,172,120.58c6.3-17.88,7.16-36.08,1.89-54.28C169.13,50,159.06,37.71,143.93,29.8c-8.54-4.46-17.75-6.54-27.3-7.26-12.7-1-25.19.06-37.11,4.84C58.43,35.82,44,51.14,35,71.69c-7.59,17.39-8.68,35.65-5.5,54.18,4.74,27.64,23.72,47.78,51.06,54,21.19,4.81,42.13,3.22,62.7-3.58,3.68-1.22,7.24-2.79,10.91-4.21a5.13,5.13,0,0,1,.14.8c0,7.2,0,14.39,0,21.59a2.26,2.26,0,0,1-1.24,1.67c-5.1,1.71-10.17,3.63-15.39,4.85-14.89,3.49-30,4.29-45.29,3.46-11.53-.63-22.83-2.56-33.54-6.91C26.52,184.43,7,160.88,1.43,126.25c-.64-4-1-8-1.43-12V100.14c.23-2,.48-3.92.68-5.88,2.07-20.76,9.4-39.39,22.54-55.65C40,17.86,61.5,5.29,88,1.44,92,.85,96.09.47,100.14,0Zm20.31,94.25c-.32-3.63-.31-7.34-1-10.89-1.37-6.71-4.76-12.08-11.9-13.81s-13,.82-17.7,6.35a29.94,29.94,0,0,0-3.29,4.72C79.67,93,77.7,106.29,79.77,120.19a25.65,25.65,0,0,0,2.34,7.21c5,10.36,16.83,12.61,25.46,4.94a29.08,29.08,0,0,0,7.06-10.15C118.6,113.32,119.78,103.88,120.45,94.25Z"/></g></g></svg>