<svg xmlns="http://www.w3.org/2000/svg" viewBox="0 0 205.89 168.27"><defs><style>.cls-1{fill:#fff;}</style></defs><title>Asset 2</title><g id="Layer_2" data-name="Layer 2"><g id="Layer_1-2" data-name="Layer 1"><path class="cls-1" d="M0,149.43c22.73,1.9,43.25-3.7,61.77-17.71C42.37,130,29.43,120.38,22.23,102.2c6.51.82,12.57.92,18.9-.87C28.7,98.27,19.32,91.55,13.06,80.75a40.07,40.07,0,0,1-5.49-21.5,43.14,43.14,0,0,0,18.94,5.15C17.2,57.64,11.28,49.21,8.92,38.56A42,42,0,0,1,13.54,7.93c23,27,52,41.84,87.09,44.27-.17-4.33-.59-8.41-.44-12.48C100.77,23.82,112,8.39,127,3c16.88-6.06,32-2.94,45.22,9.29a2.72,2.72,0,0,0,2.83.78,86,86,0,0,0,23.14-8.74c.57-.32,1.16-.59,2.12-1.07A44.21,44.21,0,0,1,182.82,26.2a76.2,76.2,0,0,0,22.63-6l.44.5c-3.37,3.95-6.56,8.05-10.15,11.79a113.11,113.11,0,0,1-9.4,8.26A3.25,3.25,0,0,0,185,43.64a122.37,122.37,0,0,1-22.77,74.59c-18.35,26.14-43.36,42.23-74.83,47.94a122.08,122.08,0,0,1-65-5.47A105,105,0,0,1,0,149.43Z"/></g></g></svg>