<svg xmlns="http://www.w3.org/2000/svg" viewBox="0 0 270.99 225"><defs><style>.cls-1{fill:#fff;}.cls-2{fill:#010005;}.cls-3{fill:none;stroke:#000;stroke-miterlimit:10;stroke-width:8px;}</style></defs><title>Asset 3</title><g id="Layer_2" data-name="Layer 2"><g id="Layer_1-2" data-name="Layer 1"><path class="cls-1" d="M95.49,20.5l23,33S146.49,42,157,42s43,11.5,43,11.5l23-33S176-2.16,159.24.17C128.49,0,95.49,20.5,95.49,20.5Z"/><path class="cls-1" d="M251.36,50.8l-33.3,22.56s11.13,28.15,11,38.65S217,154.86,217,154.86l32.7,23.43s23.28-46.7,21.17-63.48C271.43,84.06,251.36,50.8,251.36,50.8Z"/><path class="cls-1" d="M67.56,175.93,100,152.15s-12.17-27.72-12.42-38.21S98,70.67,98,70.67L64.5,48.47S43,96,45.7,112.69C46.27,143.43,67.56,175.93,67.56,175.93Z"/><path class="cls-1" d="M219.5,205.18l-22.66-33.24s-28.12,11.21-38.62,11.1-42.88-11.94-42.88-11.94L92,203.87s46.76,23.15,63.54,21C186.29,225.35,219.5,205.18,219.5,205.18Z"/><path class="cls-1" d="M14.57,154.24,36,138.55s-8-18.28-8.19-25.21,6.9-28.54,6.9-28.54L12.56,70.16S-1.65,101.51.16,112.52C.53,132.8,14.57,154.24,14.57,154.24Z"/><circle class="cls-1" cx="155.75" cy="114.25" r="42.72"/><line class="cls-2" x1="149.49" y1="87.5" x2="150.49" y2="23.5"/><line class="cls-3" x1="149.49" y1="87.5" x2="150.3" y2="36.13"/><polygon points="159.03 38.84 150.5 23.5 141.48 38.56 159.03 38.84"/><line class="cls-2" x1="167.27" y1="30.5" x2="167.27" y2="94.51"/><line class="cls-3" x1="167.27" y1="30.5" x2="167.27" y2="81.88"/><polygon points="158.49 79.31 167.27 94.51 176.04 79.31 158.49 79.31"/><line class="cls-2" x1="184.26" y1="113.5" x2="248.27" y2="113.5"/><line class="cls-3" x1="184.26" y1="113.5" x2="235.64" y2="113.5"/><polygon points="233.07 122.28 248.27 113.5 233.07 104.73 233.07 122.28"/><line class="cls-2" x1="71.76" y1="113.5" x2="135.77" y2="113.5"/><line class="cls-3" x1="71.76" y1="113.5" x2="123.14" y2="113.5"/><polygon points="120.57 122.28 135.77 113.5 120.57 104.73 120.57 122.28"/><line class="cls-2" x1="166.53" y1="198.05" x2="167.53" y2="134.05"/><line class="cls-3" x1="166.53" y1="198.05" x2="167.34" y2="146.68"/><polygon points="176.07 149.38 167.53 134.05 158.52 149.11 176.07 149.38"/><line class="cls-2" x1="149.99" y1="139.04" x2="149.99" y2="203.05"/><line class="cls-3" x1="149.99" y1="139.04" x2="149.99" y2="190.42"/><polygon points="141.22 187.85 150 203.05 158.77 187.85 141.22 187.85"/></g></g></svg>